<svg width="140" height="48" viewBox="0 0 140 48" fill="none" xmlns="http://www.w3.org/2000/svg">
<path d="M40.4008 47.1156H17.5303C18.5635 46.3318 19.7353 44.4123 19.0713 41.0443L43.7778 41.0436C43.7914 41.9517 43.8109 43.706 43.8109 43.706C43.8102 45.5863 42.2808 47.1156 40.4008 47.1156ZM10.6836 7.625V44.016C10.8383 46.1486 12.5356 47.8365 14.6732 47.9733L14.6538 48.0005H40.4008C42.7724 48.0005 44.6957 46.0779 44.6957 43.706C44.6957 43.706 44.6493 40.1594 44.6489 40.1594H40.4932V7.625H10.6836Z" fill="#4D56AF"/>
<path d="M14.7773 21.2344H36.3683V23.7313H14.7773V21.2344Z" fill="white"/>
<path d="M14.7773 28.1289H36.3683V30.6258H14.7773V28.1289Z" fill="white"/>
<path d="M14.7773 35.0234H36.3683V37.5204H14.7773V35.0234Z" fill="white"/>
<path d="M49.9804 6.03026L25.6695 11.4247L0.393555 6.11093L25.911 0.394531L49.9804 6.03026Z" fill="#4D56AF"/>
<path d="M3.93534 6.81209L28.407 1.09644L26.6355 0.664062L1.11816 6.38046L3.93534 6.81209Z" fill="white"/>
<path d="M40.4811 8.20312L40.6061 14.3015L25.6696 16.8576L10.5723 14.3015L10.697 8.28361L25.6696 11.4239L40.4811 8.20312Z" fill="white"/>
<path d="M24.02 3.71873C23.877 3.57591 23.5981 3.49281 23.3998 3.53398L5.12262 7.3289C4.92496 7.37008 4.7627 7.56924 4.7627 7.77201V30.4638C4.7627 30.6666 4.92815 30.8321 5.13092 30.8321H5.68247C5.88524 30.8321 6.05045 30.6666 6.05045 30.4638V8.65741C6.05045 8.45464 6.2128 8.25555 6.4112 8.21505L24.3656 4.49937C24.5633 4.45888 24.6088 4.30777 24.4656 4.16495L24.02 3.71873Z" fill="#3C46A3"/>
<path d="M10.7784 10.8897L25.5894 13.8689L40.4813 11.2923V8.20312L26.1528 11.1312L10.6973 8.28361L10.7784 10.8897Z" fill="#303F9D"/>
<path d="M2.25266 6.09769L25.6679 11.0203L48.2064 6.01927L25.9099 0.799071L2.25266 6.09769ZM25.6703 11.8185C25.643 11.8185 25.616 11.8153 25.5891 11.8097L0.3134 6.49594C0.13159 6.45794 0.00119449 6.29803 9.04673e-06 6.11285C-0.00123879 5.92736 0.126724 5.76577 0.307535 5.72534L25.8258 0.00962761C25.8838 -0.00353705 25.9438 -0.00303819 26.0018 0.0101265L50.0703 5.6461C50.2492 5.68778 50.376 5.84813 50.3748 6.03243C50.374 6.21568 50.2456 6.37484 50.066 6.41483L25.7558 11.8085C25.7278 11.8153 25.6991 11.8185 25.6703 11.8185Z" fill="#3C46A3"/>
<path d="M6.66551 32.029C6.66551 32.7392 6.08957 33.3152 5.37936 33.3152C4.66872 33.3152 4.09277 32.7392 4.09277 32.029C4.09277 31.3184 4.66872 30.7422 5.37936 30.7422C6.08957 30.7422 6.66551 31.3184 6.66551 32.029Z" fill="#3C46A3"/>
<path d="M58.9651 18.8494H62.6971L61.6233 16.3608L60.9245 14.5885H60.7374L60.0389 16.3608L58.9651 18.8494ZM54.0234 23.6723L59.0165 12.2539H62.663L67.6902 23.6723H64.7587L63.6856 21.1499H57.9773L56.8864 23.6723H54.0234Z" fill="#020817"/>
<path d="M68.0312 19.4132C68.0312 16.686 69.9064 14.9648 72.8372 14.9648C75.5807 14.9648 77.4548 16.4308 77.4548 18.6462V18.8846H74.9161V18.7486C74.9161 17.6577 74.115 17.2658 72.7859 17.2658C71.2691 17.2658 70.5703 17.8281 70.5703 19.4132C70.5703 20.9813 71.2691 21.5436 72.7859 21.5436C74.115 21.5436 74.9161 21.1512 74.9161 20.0608V19.9243H77.4548V20.1626C77.4548 22.3617 75.5807 23.8445 72.8372 23.8445C69.9064 23.8445 68.0312 22.1058 68.0312 19.4132Z" fill="#020817"/>
<path d="M81.9199 22.0373C83.6583 22.0373 84.5954 21.6286 84.6634 20.4185L81.6983 20.7592C81.0849 20.8104 80.8124 20.9813 80.8124 21.39C80.8124 21.8501 81.1699 22.0373 81.9199 22.0373ZM78.2393 21.5598C78.2393 20.2993 79.1763 19.5148 80.9996 19.3277L84.6634 18.953V18.6292C84.6634 17.521 84.1692 17.2146 82.8058 17.2146C81.5111 17.2146 80.9828 17.5554 80.9828 18.527V18.5951H78.4093V18.5439C78.4093 16.4308 80.1821 14.9648 82.9937 14.9648C85.8388 14.9648 87.1854 16.4308 87.1854 18.663V23.6736H84.8001V21.7139H84.6634C84.2715 23.0426 83.0785 23.8445 81.1873 23.8445C79.3467 23.8445 78.2393 22.992 78.2393 21.5598Z" fill="#020817"/>
<path d="M93.1678 21.5078C94.7869 21.5078 95.6723 20.9456 95.6723 19.4623V19.3263C95.6723 17.8435 94.8032 17.2981 93.1678 17.2981C91.5318 17.2981 90.7648 17.8435 90.7648 19.4119C90.7648 20.9627 91.5318 21.5078 93.1678 21.5078ZM88.1748 19.4119C88.1748 16.6846 89.623 14.9635 92.162 14.9635C94.1897 14.9635 95.2292 15.9689 95.5188 17.4005H95.6723V12.2539H98.2287V23.6723H95.8426V21.3034H95.7067C95.3827 22.9907 94.2585 23.8432 92.2985 23.8432C89.6405 23.8432 88.1748 22.1044 88.1748 19.4119Z" fill="#020817"/>
<path d="M101.723 18.5782H106.256C106.188 17.453 105.506 16.9587 104.006 16.9587C102.489 16.9587 101.842 17.4698 101.723 18.5782ZM99.3203 19.4132C99.3203 16.686 101.246 14.9648 104.057 14.9648C106.852 14.9648 108.71 16.4308 108.71 19.1066C108.71 19.4132 108.675 19.6352 108.641 19.9243H101.689C101.757 21.2367 102.37 21.7989 104.023 21.7989C105.54 21.7989 106.068 21.407 106.068 20.6742V20.5039H108.624V20.6913C108.624 22.5489 106.818 23.8445 104.109 23.8445C101.263 23.8445 99.3203 22.4465 99.3203 19.4132Z" fill="#020817"/>
<path d="M109.8 23.6736V15.1352H112.168V17.7257H112.305C112.51 16.2941 113.361 14.9648 115.508 14.9648C117.485 14.9648 118.49 16.1749 118.678 17.7601H118.832C119.036 16.3109 119.905 14.9648 122.103 14.9648C124.301 14.9648 125.375 16.4133 125.375 18.3567V23.6736H122.819V19.2085C122.819 17.7937 122.325 17.2658 120.859 17.2658C119.308 17.2658 118.865 17.8792 118.865 19.362V23.6736H116.31V19.2085C116.31 17.7937 115.815 17.2658 114.35 17.2658C112.799 17.2658 112.356 17.8792 112.356 19.362V23.6736H109.8Z" fill="#020817"/>
<path d="M126.678 12.3945H129.234V14.4052H126.678V12.3945Z" fill="#4D56AF"/>
<path d="M126.678 15.2773H129.234V23.8158H126.678V15.2773Z" fill="#020817"/>
<path d="M133.931 22.0373C135.669 22.0373 136.606 21.6286 136.674 20.4185L133.709 20.7592C133.096 20.8104 132.823 20.9813 132.823 21.39C132.823 21.8501 133.181 22.0373 133.931 22.0373ZM130.25 21.5598C130.25 20.2993 131.187 19.5148 133.011 19.3277L136.674 18.953V18.6292C136.674 17.521 136.18 17.2146 134.817 17.2146C133.522 17.2146 132.994 17.5554 132.994 18.527V18.5951H130.42V18.5439C130.42 16.4308 132.193 14.9648 135.005 14.9648C137.851 14.9648 139.196 16.4308 139.196 18.663V23.6736H136.811V21.7139H136.674C136.283 23.0426 135.09 23.8445 133.198 23.8445C131.358 23.8445 130.25 22.992 130.25 21.5598Z" fill="#020817"/>
<path d="M53.7432 35.5838V33.5324L57.1883 30.7915L58.8707 29.7345V29.5742L57.1883 29.6702H53.9837V27.5547H62.0274V29.6222L58.3099 32.491L56.7876 33.4364V33.5967L58.3099 33.4844H62.2676V35.5838H53.7432Z" fill="#4D56AF"/>
<path d="M69.6863 31.5775C69.6863 30.1671 69.1096 29.51 67.4911 29.51C65.857 29.51 65.2959 30.1671 65.2959 31.5775C65.2959 32.9879 65.857 33.6125 67.4911 33.6125C69.1096 33.6125 69.6863 32.9879 69.6863 31.5775ZM62.9082 31.5775C62.9082 29.0133 64.7512 27.3945 67.4911 27.3945C70.2314 27.3945 72.0742 29.0133 72.0742 31.5775C72.0742 34.11 70.2314 35.7443 67.4911 35.7443C64.7512 35.7443 62.9082 34.11 62.9082 31.5775Z" fill="#4D56AF"/>
<path d="M73.0518 35.584V27.5549H75.2786V30.023H75.4226C75.631 28.677 76.5927 27.3945 78.6917 27.3945C80.8869 27.3945 81.9287 28.8047 81.9287 30.5834V35.584H79.5254V31.3852C79.5254 30.1027 78.9961 29.558 77.5218 29.558C76 29.558 75.4553 30.1671 75.4553 31.5295V35.584H73.0518Z" fill="#4D56AF"/>
<path d="M85.1645 30.7917H89.4262C89.3626 29.7347 88.7211 29.2697 87.3117 29.2697C85.8852 29.2697 85.2764 29.7508 85.1645 30.7917ZM82.9053 31.5775C82.9053 29.0133 84.7154 27.3945 87.3597 27.3945C89.9872 27.3945 91.7337 28.773 91.7337 31.2884C91.7337 31.5775 91.7018 31.7859 91.6701 32.0586H85.1322C85.1965 33.2922 85.7729 33.8209 87.3273 33.8209C88.7536 33.8209 89.2502 33.4527 89.2502 32.7639V32.6035H91.6538V32.7795C91.6538 34.5262 89.9553 35.7443 87.4077 35.7443C84.7317 35.7443 82.9053 34.4307 82.9053 31.5775Z" fill="#4D56AF"/>
</svg>
